<svg width="30" height="30" viewBox="0 0 30 30" fill="none" xmlns="http://www.w3.org/2000/svg">
<path d="M13.5469 20.0156H14.5469V19.0156V15.8906V14.8906H13.5469H13.375V14.5469H15.6719V19.0156V20.0156H16.6719H16.8438V20.3594H13.375V20.0156H13.5469ZM15.1094 2C7.86963 2 2 7.87179 2 15.1094C2 22.3511 7.86984 28.2188 15.1094 28.2188C22.3489 28.2188 28.2188 22.3511 28.2188 15.1094C28.2188 7.87179 22.3491 2 15.1094 2ZM15.1094 9.37109C15.6897 9.37109 16.1602 9.84154 16.1602 10.4219C16.1602 11.0022 15.6897 11.4727 15.1094 11.4727C14.529 11.4727 14.0586 11.0022 14.0586 10.4219C14.0586 9.84154 14.529 9.37109 15.1094 9.37109Z" stroke="white" stroke-width="2"/>
</svg>
