<svg width="30" height="30" viewBox="0 0 30 30" fill="none" xmlns="http://www.w3.org/2000/svg">
<path d="M22.2691 22.2871L22.2691 22.2871C22.1673 22.1628 22.054 22.0521 21.9316 21.9557C23.8046 21.6081 25.2559 20.7713 26.296 19.5829C27.6681 18.0151 28.2188 15.9567 28.2188 13.9375C28.2188 6.60201 22.2664 2 15.1094 2C7.86481 2 2 7.86362 2 15.1094C2 22.3539 7.86362 28.2188 15.1094 28.2188C17.6555 28.2188 20.149 27.4714 22.2667 26.0928C23.3476 25.3891 23.5892 23.8998 22.766 22.8942L22.2691 22.2871ZM19.7936 8.25H18.3928C18.3928 8.25 18.3928 8.25 18.3928 8.25C18.1203 8.25 17.8543 8.31698 17.617 8.44242C16.6695 7.87619 15.5491 7.77686 14.8082 7.77686C10.8468 7.77686 7.55484 10.8559 7.12553 15.2018C7.12518 15.171 7.125 15.1402 7.125 15.1094C7.125 10.7077 10.7077 7.125 15.1094 7.125C16.8788 7.125 18.4934 7.52353 19.7936 8.25ZM11.4797 22.2197C11.8898 22.3009 12.3197 22.3418 12.7656 22.3418C13.9579 22.3418 15.2089 21.859 16.2013 21.0904C16.5532 21.4632 16.9854 21.7166 17.4592 21.8753C17.9328 22.034 18.4469 22.0959 18.9304 22.12C17.7653 22.7539 16.4485 23.0938 15.1094 23.0938C13.8033 23.0938 12.5693 22.7783 11.4797 22.2197ZM21.576 16.7542L21.576 16.7542L21.5772 16.748L22.6187 11.3651C22.9251 12.1219 23.0938 12.9793 23.0938 13.9375C23.0938 14.7178 22.8785 15.5003 22.5086 16.082C22.2379 16.5079 21.91 16.7931 21.5421 16.9347C21.5516 16.8798 21.5628 16.8199 21.576 16.7542ZM21.2186 17.0193C21.2186 17.0193 21.2192 17.0194 21.2204 17.0197L21.2186 17.0193ZM14.0508 16.8647C13.7553 16.8647 13.6022 16.7695 13.5117 16.6672C13.4087 16.5507 13.2896 16.3112 13.2896 15.874C13.2896 14.1165 14.4511 13.3228 15.1523 13.3228C15.4554 13.3228 15.597 13.4174 15.6764 13.5084C15.7714 13.6171 15.8907 13.8545 15.8907 14.3135C15.8907 15.1522 15.5786 15.8017 15.1783 16.2385C14.7545 16.7008 14.2953 16.8647 14.0508 16.8647Z" stroke="white" stroke-width="2"/>
</svg>
