<svg width="31" height="30" viewBox="0 0 31 30" fill="none" xmlns="http://www.w3.org/2000/svg">
<mask id="path-1-inside-1_14_73" fill="white">
<path d="M14.6034 9.65261L5.00079 17.5615V26.0974C5.00079 26.3184 5.08858 26.5304 5.24486 26.6867C5.40114 26.8429 5.61311 26.9307 5.83412 26.9307L11.6706 26.9156C11.8909 26.9145 12.1018 26.8262 12.2571 26.6701C12.4125 26.5139 12.4998 26.3026 12.4998 26.0823V21.0974C12.4998 20.8764 12.5876 20.6644 12.7438 20.5081C12.9001 20.3519 13.1121 20.2641 13.3331 20.2641H16.6664C16.8874 20.2641 17.0994 20.3519 17.2557 20.5081C17.412 20.6644 17.4998 20.8764 17.4998 21.0974V26.0787C17.4994 26.1883 17.5207 26.297 17.5624 26.3984C17.6042 26.4998 17.6655 26.5919 17.7429 26.6696C17.8203 26.7473 17.9123 26.8089 18.0136 26.8509C18.1149 26.893 18.2234 26.9146 18.3331 26.9146L24.1675 26.9307C24.3885 26.9307 24.6005 26.8429 24.7567 26.6867C24.913 26.5304 25.0008 26.3184 25.0008 26.0974V17.5557L15.4003 9.65261C15.2874 9.56163 15.1468 9.51202 15.0018 9.51202C14.8569 9.51202 14.7163 9.56163 14.6034 9.65261ZM29.7716 15.0281L25.4175 11.4391V4.22501C25.4175 4.05925 25.3516 3.90027 25.2344 3.78306C25.1172 3.66585 24.9582 3.60001 24.7925 3.60001H21.8758C21.71 3.60001 21.5511 3.66585 21.4339 3.78306C21.3167 3.90027 21.2508 4.05925 21.2508 4.22501V8.00678L16.5878 4.17032C16.1403 3.80208 15.5788 3.60074 14.9992 3.60074C14.4197 3.60074 13.8582 3.80208 13.4107 4.17032L0.226822 15.0281C0.163535 15.0804 0.111174 15.1447 0.0727323 15.2173C0.0342906 15.2898 0.0105212 15.3692 0.00278238 15.451C-0.00495649 15.5327 0.00348681 15.6152 0.0276298 15.6937C0.0517729 15.7721 0.0911424 15.8451 0.143489 15.9083L1.47162 17.5229C1.52382 17.5864 1.58803 17.639 1.66057 17.6776C1.73312 17.7162 1.81256 17.7402 1.89437 17.748C1.97618 17.7559 2.05874 17.7476 2.13732 17.7235C2.21591 17.6995 2.28898 17.6602 2.35235 17.6078L14.6034 7.51719C14.7163 7.42622 14.8569 7.37661 15.0018 7.37661C15.1468 7.37661 15.2874 7.42622 15.4003 7.51719L27.6519 17.6078C27.7151 17.6602 27.7881 17.6995 27.8665 17.7237C27.945 17.7478 28.0275 17.7563 28.1092 17.7485C28.191 17.7408 28.2704 17.717 28.3429 17.6786C28.4155 17.6401 28.4798 17.5878 28.5321 17.5245L29.8602 15.9099C29.9125 15.8463 29.9517 15.773 29.9755 15.6941C29.9994 15.6153 30.0074 15.5326 29.9992 15.4506C29.991 15.3687 29.9667 15.2892 29.9276 15.2167C29.8885 15.1442 29.8355 15.0801 29.7716 15.0281Z"/>
</mask>
<path d="M14.6034 9.65261L13.0972 7.78405L13.0874 7.792L13.0776 7.80006L14.6034 9.65261ZM5.00079 17.5615L3.47499 15.7089L2.60079 16.4289V17.5615H5.00079ZM5.83412 26.9307V29.3307L5.84033 29.3307L5.83412 26.9307ZM11.6706 26.9156L11.6768 29.3156L11.6826 29.3156L11.6706 26.9156ZM12.4998 26.0823H10.0998V26.0823L12.4998 26.0823ZM17.4998 26.0787L19.8998 26.0862V26.0787H17.4998ZM18.3331 26.9146L18.3397 24.5146H18.3331L18.3331 26.9146ZM24.1675 26.9307L24.1608 29.3307H24.1675V26.9307ZM25.0008 17.5557H27.4008V16.4228L26.5261 15.7028L25.0008 17.5557ZM15.4003 9.65261L16.9256 7.79968L16.9161 7.79181L16.9064 7.78405L15.4003 9.65261ZM29.7716 15.0281L28.2451 16.8801L28.2513 16.8852L28.2575 16.8902L29.7716 15.0281ZM25.4175 11.4391H23.0175V12.571L23.8909 13.291L25.4175 11.4391ZM21.2508 8.00678L19.726 9.86013L23.6508 13.0892V8.00678H21.2508ZM16.5878 4.17032L15.0628 6.02353L15.063 6.02367L16.5878 4.17032ZM14.9992 3.60074V6.00074V3.60074ZM13.4107 4.17032L11.8857 2.31711L11.885 2.31772L13.4107 4.17032ZM0.226822 15.0281L-1.29892 13.1755L-1.30218 13.1782L0.226822 15.0281ZM0.143489 15.9083L1.99699 14.3837L1.99249 14.3782L0.143489 15.9083ZM1.47162 17.5229L3.32527 15.9985L3.32511 15.9983L1.47162 17.5229ZM2.35235 17.6078L0.82651 15.7553L0.824005 15.7574L2.35235 17.6078ZM14.6034 7.51719L13.0972 5.64864L13.0874 5.6566L13.0776 5.66467L14.6034 7.51719ZM15.4003 7.51719L16.9261 5.66464L16.9163 5.65659L16.9064 5.64864L15.4003 7.51719ZM27.6519 17.6078L29.182 15.7588L29.1777 15.7553L27.6519 17.6078ZM28.5321 17.5245L30.382 19.0535L30.3856 19.0491L28.5321 17.5245ZM29.8602 15.9099L31.7137 17.4346L31.7143 17.4338L29.8602 15.9099ZM13.0776 7.80006L3.47499 15.7089L6.52658 19.414L16.1292 11.5052L13.0776 7.80006ZM2.60079 17.5615V26.0974H7.40079V17.5615H2.60079ZM2.60079 26.0974C2.60079 26.9549 2.94144 27.7773 3.54781 28.3837L6.94192 24.9896C7.23573 25.2834 7.40079 25.6819 7.40079 26.0974H2.60079ZM3.54781 28.3837C4.15418 28.9901 4.97659 29.3307 5.83412 29.3307V24.5307C6.24962 24.5307 6.64811 24.6958 6.94192 24.9896L3.54781 28.3837ZM5.84033 29.3307L11.6768 29.3156L11.6644 24.5156L5.82791 24.5307L5.84033 29.3307ZM11.6826 29.3156C12.5373 29.3113 13.3556 28.9688 13.9585 28.3629L10.5558 24.9773C10.848 24.6837 11.2444 24.5177 11.6586 24.5157L11.6826 29.3156ZM13.9585 28.3629C14.5613 27.757 14.8998 26.937 14.8998 26.0823L10.0998 26.0823C10.0997 25.6682 10.2637 25.2709 10.5558 24.9773L13.9585 28.3629ZM14.8998 26.0823V21.0974H10.0998V26.0823H14.8998ZM14.8998 21.0974C14.8998 21.5129 14.7347 21.9114 14.4409 22.2052L11.0468 18.8111C10.4404 19.4175 10.0998 20.2399 10.0998 21.0974H14.8998ZM14.4409 22.2052C14.1471 22.499 13.7486 22.6641 13.3331 22.6641V17.8641C12.4756 17.8641 11.6531 18.2047 11.0468 18.8111L14.4409 22.2052ZM13.3331 22.6641H16.6664V17.8641H13.3331V22.6641ZM16.6664 22.6641C16.2509 22.6641 15.8524 22.499 15.5586 22.2052L18.9527 18.8111C18.3464 18.2047 17.524 17.8641 16.6664 17.8641V22.6641ZM15.5586 22.2052C15.2648 21.9114 15.0998 21.5129 15.0998 21.0974H19.8998C19.8998 20.2399 19.5591 19.4175 18.9527 18.8111L15.5586 22.2052ZM15.0998 21.0974V26.0787H19.8998V21.0974H15.0998ZM15.0998 26.0712C15.0984 26.4966 15.1811 26.9181 15.343 27.3116L19.7819 25.4851C19.8603 25.6758 19.9004 25.88 19.8997 26.0862L15.0998 26.0712ZM15.343 27.3116C15.5049 27.7051 15.7428 28.0627 16.0432 28.364L19.4426 24.9752C19.5881 25.1212 19.7034 25.2945 19.7819 25.4851L15.343 27.3116ZM16.0432 28.364C16.3436 28.6653 16.7005 28.9044 17.0934 29.0675L18.9338 24.6343C19.1242 24.7134 19.2971 24.8292 19.4426 24.9752L16.0432 28.364ZM17.0934 29.0675C17.4864 29.2306 17.9077 29.3146 18.3331 29.3146L18.3331 24.5146C18.5392 24.5146 18.7433 24.5553 18.9338 24.6343L17.0934 29.0675ZM18.3265 29.3146L24.1608 29.3307L24.1741 24.5307L18.3397 24.5146L18.3265 29.3146ZM24.1675 29.3307C25.025 29.3307 25.8474 28.9901 26.4538 28.3837L23.0597 24.9896C23.3535 24.6958 23.752 24.5307 24.1675 24.5307V29.3307ZM26.4538 28.3837C27.0602 27.7773 27.4008 26.9549 27.4008 26.0974H22.6008C22.6008 25.6819 22.7659 25.2834 23.0597 24.9896L26.4538 28.3837ZM27.4008 26.0974V17.5557H22.6008V26.0974H27.4008ZM26.5261 15.7028L16.9256 7.79968L13.8749 11.5055L23.4755 19.4087L26.5261 15.7028ZM16.9064 7.78405C16.3669 7.34916 15.6948 7.11202 15.0018 7.11202V11.912C14.5988 11.912 14.2079 11.7741 13.8941 11.5212L16.9064 7.78405ZM15.0018 7.11202C14.3089 7.11202 13.6368 7.34917 13.0972 7.78405L16.1096 11.5212C15.7958 11.7741 15.4049 11.912 15.0018 11.912V7.11202ZM31.2982 13.1762L26.944 9.58712L23.8909 13.291L28.2451 16.8801L31.2982 13.1762ZM27.8175 11.4391V4.22501H23.0175V11.4391H27.8175ZM27.8175 4.22501C27.8175 3.42273 27.4988 2.65331 26.9315 2.08601L23.5374 5.48012C23.2045 5.14724 23.0175 4.69576 23.0175 4.22501H27.8175ZM26.9315 2.08601C26.3642 1.51871 25.5948 1.20001 24.7925 1.20001V6.00001C24.3217 6.00001 23.8702 5.813 23.5374 5.48012L26.9315 2.08601ZM24.7925 1.20001H21.8758V6.00001H24.7925V1.20001ZM21.8758 1.20001C21.0735 1.20001 20.3041 1.51871 19.7368 2.08601L23.1309 5.48012C22.798 5.813 22.3466 6.00001 21.8758 6.00001V1.20001ZM19.7368 2.08601C19.1695 2.65331 18.8508 3.42273 18.8508 4.22501H23.6508C23.6508 4.69576 23.4638 5.14724 23.1309 5.48012L19.7368 2.08601ZM18.8508 4.22501V8.00678H23.6508V4.22501H18.8508ZM22.7756 6.15343L18.1126 2.31697L15.063 6.02367L19.726 9.86013L22.7756 6.15343ZM18.1128 2.31711C17.2357 1.59536 16.1351 1.20074 14.9992 1.20074V6.00074C15.0224 6.00074 15.0449 6.0088 15.0628 6.02353L18.1128 2.31711ZM14.9992 1.20074C13.8634 1.20074 12.7628 1.59536 11.8857 2.31711L14.9357 6.02353C14.9536 6.0088 14.9761 6.00074 14.9992 6.00074V1.20074ZM11.885 2.31772L-1.29892 13.1755L1.75256 16.8807L14.9364 6.02292L11.885 2.31772ZM-1.30218 13.1782C-1.60849 13.4314 -1.86192 13.7424 -2.04798 14.0936L2.19344 16.3409C2.08426 16.547 1.93556 16.7295 1.75582 16.878L-1.30218 13.1782ZM-2.04798 14.0936C-2.23404 14.4448 -2.34908 14.8291 -2.38653 15.2248L2.3921 15.6772C2.37012 15.9093 2.30262 16.1349 2.19344 16.3409L-2.04798 14.0936ZM-2.38653 15.2248C-2.42399 15.6204 -2.38312 16.0195 -2.26627 16.3994L2.32153 14.988C2.3901 15.2108 2.41408 15.445 2.3921 15.6772L-2.38653 15.2248ZM-2.26627 16.3994C-2.14942 16.7792 -1.95887 17.1323 -1.70551 17.4384L1.99249 14.3782C2.14115 14.5579 2.25296 14.7651 2.32153 14.988L-2.26627 16.3994ZM-1.71001 17.433L-0.381879 19.0476L3.32511 15.9983L1.99698 14.3837L-1.71001 17.433ZM-0.382041 19.0474C-0.129374 19.3546 0.181408 19.609 0.532512 19.796L2.78863 15.5592C2.99465 15.6689 3.17701 15.8182 3.32527 15.9985L-0.382041 19.0474ZM0.532512 19.796C0.883609 19.9829 1.26814 20.0988 1.6641 20.137L2.12465 15.3591C2.35699 15.3815 2.58262 15.4495 2.78863 15.5592L0.532512 19.796ZM1.6641 20.137C2.06004 20.1751 2.45963 20.1348 2.83999 20.0184L1.43466 15.4287C1.65785 15.3604 1.89232 15.3367 2.12465 15.3591L1.6641 20.137ZM2.83999 20.0184C3.22034 19.9019 3.57399 19.7116 3.88069 19.4583L0.824005 15.7574C1.00396 15.6087 1.21148 15.497 1.43466 15.4287L2.83999 20.0184ZM3.87818 19.4603L16.1292 9.36971L13.0776 5.66467L0.826511 15.7553L3.87818 19.4603ZM16.1096 9.38575C15.7958 9.63868 15.4049 9.77661 15.0018 9.77661V4.97661C14.3089 4.97661 13.6368 5.21376 13.0972 5.64864L16.1096 9.38575ZM15.0018 9.77661C14.5988 9.77661 14.2079 9.63868 13.8941 9.38575L16.9064 5.64864C16.3669 5.21375 15.6948 4.97661 15.0018 4.97661V9.77661ZM13.8745 9.36975L26.1261 19.4604L29.1777 15.7553L16.9261 5.66464L13.8745 9.36975ZM26.1218 19.4568C26.4279 19.7102 26.781 19.9007 27.1608 20.0176L28.5722 15.4298C28.7951 15.4983 29.0023 15.6102 29.1819 15.7588L26.1218 19.4568ZM27.1608 20.0176C27.5407 20.1344 27.9398 20.1753 28.3354 20.1378L27.883 15.3592C28.1152 15.3372 28.3494 15.3612 28.5722 15.4298L27.1608 20.0176ZM28.3354 20.1378C28.7311 20.1004 29.1154 19.9853 29.4666 19.7993L27.2193 15.5579C27.4253 15.4487 27.6509 15.3812 27.883 15.3592L28.3354 20.1378ZM29.4666 19.7993C29.8178 19.6132 30.1288 19.3598 30.382 19.0535L26.6822 15.9955C26.8307 15.8158 27.0132 15.6671 27.2193 15.5579L29.4666 19.7993ZM30.3856 19.0491L31.7137 17.4346L28.0067 14.3853L26.6786 15.9998L30.3856 19.0491ZM31.7143 17.4338C31.9674 17.1259 32.1571 16.771 32.2726 16.3895L27.6785 14.9988C27.7463 14.7749 27.8576 14.5667 28.0061 14.386L31.7143 17.4338ZM32.2726 16.3895C32.3881 16.0079 32.427 15.6074 32.3872 15.2108L27.6112 15.6904C27.5879 15.4577 27.6107 15.2227 27.6785 14.9988L32.2726 16.3895ZM32.3872 15.2108C32.3474 14.8142 32.2296 14.4294 32.0406 14.0785L27.8146 16.3548C27.7037 16.1489 27.6346 15.9231 27.6112 15.6904L32.3872 15.2108ZM32.0406 14.0785C31.8515 13.7276 31.595 13.4175 31.2858 13.166L28.2575 16.8902C28.0761 16.7427 27.9256 16.5607 27.8146 16.3548L32.0406 14.0785Z" fill="white" mask="url(#path-1-inside-1_14_73)"/>
</svg>
