<svg width="27" height="31" viewBox="0 0 27 31" fill="none" xmlns="http://www.w3.org/2000/svg">
<path d="M5.46307 29.1759C6.59664 29.1759 7.68377 28.7297 8.48532 27.9355C9.28687 27.1412 9.73718 26.0639 9.73718 24.9407C9.73718 23.8174 9.28687 22.7401 8.48532 21.9459C7.68377 21.1516 6.59664 20.7054 5.46307 20.7054C4.32951 20.7054 3.24237 21.1516 2.44082 21.9459C1.63927 22.7401 1.18896 23.8174 1.18896 24.9407C1.18896 26.0639 1.63927 27.1412 2.44082 27.9355C3.24237 28.7297 4.32951 29.1759 5.46307 29.1759Z" stroke="white" stroke-width="2" stroke-linecap="round" stroke-linejoin="round"/>
<path d="M25.4089 22.1171V5.55603C25.4089 2.02662 23.176 1.53794 20.9156 2.14879L12.3674 4.45648C10.8057 4.87729 9.73718 6.09901 9.73718 7.86371V24.927" stroke="white" stroke-width="2" stroke-linecap="round" stroke-linejoin="round"/>
<path d="M9.73718 12.2348L25.4089 7.99953M21.1348 26.3524C22.2684 26.3524 23.3555 25.9062 24.1571 25.1119C24.9586 24.3177 25.4089 23.2404 25.4089 22.1171C25.4089 20.9939 24.9586 19.9166 24.1571 19.1224C23.3555 18.3281 22.2684 17.8819 21.1348 17.8819C20.0012 17.8819 18.9141 18.3281 18.1126 19.1224C17.311 19.9166 16.8607 20.9939 16.8607 22.1171C16.8607 23.2404 17.311 24.3177 18.1126 25.1119C18.9141 25.9062 20.0012 26.3524 21.1348 26.3524Z" stroke="white" stroke-width="2" stroke-linecap="round" stroke-linejoin="round"/>
</svg>
