<svg width="30" height="30" viewBox="0 0 30 30" fill="none" xmlns="http://www.w3.org/2000/svg">
<path d="M23.3125 7.6875V8.6875H24.3125H24.875V9.8125H24.3125H23.3125V10.8125V13.9375V14.9375H24.3125H24.875V16.0625H24.3125H23.3125V17.0625V20.1875V21.1875H24.3125H24.875V22.3125H24.3125H23.3125V23.3125V25.6562C23.3125 26.3979 22.7104 27 21.9688 27H6.34375C5.60209 27 5 26.3979 5 25.6562V5.34375C5 4.60209 5.60209 4 6.34375 4H21.9688C22.7104 4 23.3125 4.60209 23.3125 5.34375V7.6875ZM16.0052 16.0625C17.3543 15.3838 18.2812 13.9864 18.2812 12.375C18.2812 10.0991 16.4322 8.25 14.1562 8.25C11.8803 8.25 10.0312 10.0991 10.0312 12.375C10.0312 13.9864 10.9582 15.3838 12.3073 16.0625H12.2129H11.9688C9.75512 16.0625 7.6875 17.6309 7.6875 19.875V20.8125C7.6875 22.0205 8.77264 22.75 9.78125 22.75H18.5312C19.5399 22.75 20.625 22.0205 20.625 20.8125V19.875C20.625 17.6309 18.5574 16.0625 16.3438 16.0625H16.0996H16.0052Z" stroke="white" stroke-width="2"/>
</svg>
