<svg width="50" height="50" viewBox="0 0 50 50" fill="none" xmlns="http://www.w3.org/2000/svg">
<path d="M15.625 19.8864C16.8087 19.8864 17.8149 19.4721 18.6435 18.6435C19.4721 17.8149 19.8864 16.8087 19.8864 15.625C19.8864 14.4413 19.4721 13.4351 18.6435 12.6065C17.8149 11.7779 16.8087 11.3636 15.625 11.3636C14.4413 11.3636 13.4351 11.7779 12.6065 12.6065C11.7779 13.4351 11.3636 14.4413 11.3636 15.625C11.3636 16.8087 11.7779 17.8149 12.6065 18.6435C13.4351 19.4721 14.4413 19.8864 15.625 19.8864ZM15.625 22.7273C13.66 22.7273 11.9853 22.0346 10.6009 20.6491C9.21544 19.2647 8.52273 17.59 8.52273 15.625C8.52273 13.66 9.21544 11.9848 10.6009 10.5994C11.9853 9.21496 13.66 8.52273 15.625 8.52273C17.59 8.52273 19.2652 9.21496 20.6506 10.5994C22.035 11.9848 22.7273 13.66 22.7273 15.625C22.7273 17.59 22.035 19.2647 20.6506 20.6491C19.2652 22.0346 17.59 22.7273 15.625 22.7273ZM1.42045 17.0455C1.01799 17.0455 0.680871 16.9091 0.409091 16.6364C0.136364 16.3646 0 16.0275 0 15.625C0 15.2225 0.136364 14.8849 0.409091 14.6122C0.680871 14.3404 1.01799 14.2045 1.42045 14.2045H4.26136C4.66383 14.2045 5.00142 14.3404 5.27415 14.6122C5.54593 14.8849 5.68182 15.2225 5.68182 15.625C5.68182 16.0275 5.54593 16.3646 5.27415 16.6364C5.00142 16.9091 4.66383 17.0455 4.26136 17.0455H1.42045ZM26.9886 17.0455C26.5862 17.0455 26.2491 16.9091 25.9773 16.6364C25.7045 16.3646 25.5682 16.0275 25.5682 15.625C25.5682 15.2225 25.7045 14.8849 25.9773 14.6122C26.2491 14.3404 26.5862 14.2045 26.9886 14.2045H29.8295C30.232 14.2045 30.5691 14.3404 30.8409 14.6122C31.1136 14.8849 31.25 15.2225 31.25 15.625C31.25 16.0275 31.1136 16.3646 30.8409 16.6364C30.5691 16.9091 30.232 17.0455 29.8295 17.0455H26.9886ZM15.625 5.68182C15.2225 5.68182 14.8854 5.54545 14.6136 5.27273C14.3409 5.00095 14.2045 4.66383 14.2045 4.26136V1.42045C14.2045 1.01799 14.3409 0.680398 14.6136 0.40767C14.8854 0.13589 15.2225 0 15.625 0C16.0275 0 16.3651 0.13589 16.6378 0.40767C16.9096 0.680398 17.0455 1.01799 17.0455 1.42045V4.26136C17.0455 4.66383 16.9096 5.00095 16.6378 5.27273C16.3651 5.54545 16.0275 5.68182 15.625 5.68182ZM15.625 31.25C15.2225 31.25 14.8854 31.1136 14.6136 30.8409C14.3409 30.5691 14.2045 30.232 14.2045 29.8295V26.9886C14.2045 26.5862 14.3409 26.2491 14.6136 25.9773C14.8854 25.7045 15.2225 25.5682 15.625 25.5682C16.0275 25.5682 16.3651 25.7045 16.6378 25.9773C16.9096 26.2491 17.0455 26.5862 17.0455 26.9886V29.8295C17.0455 30.232 16.9096 30.5691 16.6378 30.8409C16.3651 31.1136 16.0275 31.25 15.625 31.25ZM6.60511 8.59375L5.07812 7.10227C4.79403 6.84186 4.65767 6.51042 4.66903 6.10795C4.68134 5.70549 4.81771 5.36222 5.07812 5.07812C5.36222 4.79403 5.70549 4.65199 6.10795 4.65199C6.51042 4.65199 6.84186 4.79403 7.10227 5.07812L8.59375 6.60511C8.85417 6.8892 8.98437 7.22064 8.98437 7.59943C8.98437 7.97822 8.85417 8.30966 8.59375 8.59375C8.33333 8.87784 8.00805 9.01373 7.6179 9.00142C7.2268 8.99006 6.8892 8.85417 6.60511 8.59375ZM24.1477 26.1719L22.6562 24.6449C22.3958 24.3608 22.2656 24.0237 22.2656 23.6335C22.2656 23.2424 22.3958 22.9167 22.6562 22.6562C22.9167 22.3722 23.2424 22.2363 23.6335 22.2486C24.0237 22.2599 24.3608 22.3958 24.6449 22.6562L26.1719 24.1477C26.456 24.4081 26.5923 24.7396 26.581 25.142C26.5687 25.5445 26.4323 25.8878 26.1719 26.1719C25.8878 26.456 25.5445 26.598 25.142 26.598C24.7396 26.598 24.4081 26.456 24.1477 26.1719ZM22.6562 8.59375C22.3722 8.33333 22.2363 8.00758 22.2486 7.61648C22.2599 7.22633 22.3958 6.8892 22.6562 6.60511L24.1477 5.07812C24.4081 4.79403 24.7396 4.65767 25.142 4.66903C25.5445 4.68134 25.8878 4.81771 26.1719 5.07812C26.456 5.36222 26.598 5.70549 26.598 6.10795C26.598 6.51042 26.456 6.84186 26.1719 7.10227L24.6449 8.59375C24.3608 8.85417 24.0294 8.98437 23.6506 8.98437C23.2718 8.98437 22.9403 8.85417 22.6562 8.59375ZM5.07812 26.1719C4.79403 25.8878 4.65199 25.5445 4.65199 25.142C4.65199 24.7396 4.79403 24.4081 5.07812 24.1477L6.60511 22.6562C6.8892 22.3958 7.2268 22.2656 7.6179 22.2656C8.00805 22.2656 8.33333 22.3958 8.59375 22.6562C8.87784 22.9167 9.0142 23.2424 9.00284 23.6335C8.99053 24.0237 8.85417 24.3608 8.59375 24.6449L7.10227 26.1719C6.84186 26.456 6.51042 26.5919 6.10795 26.5795C5.70549 26.5682 5.36222 26.4323 5.07812 26.1719Z" fill="white"/>
<path d="M40.625 50C38.0208 50 35.8073 49.0885 33.9844 47.2656C32.1615 45.4427 31.25 43.2292 31.25 40.625C31.25 38.0208 32.1615 35.8073 33.9844 33.9844C35.8073 32.1615 38.0208 31.25 40.625 31.25C40.8681 31.25 41.1069 31.2587 41.3417 31.276C41.5757 31.2934 41.8056 31.3194 42.0312 31.3542C41.3194 31.8576 40.751 32.5128 40.326 33.3198C39.9003 34.1274 39.6875 35 39.6875 35.9375C39.6875 37.5 40.2344 38.8281 41.3281 39.9219C42.4219 41.0156 43.75 41.5625 45.3125 41.5625C46.2674 41.5625 47.1441 41.3497 47.9427 40.924C48.7413 40.499 49.3924 39.9306 49.8958 39.2187C49.9306 39.4444 49.9566 39.6743 49.974 39.9083C49.9913 40.1431 50 40.3819 50 40.625C50 43.2292 49.0885 45.4427 47.2656 47.2656C45.4427 49.0885 43.2292 50 40.625 50Z" fill="white"/>
<path d="M35.2728 21.4815C35.1275 21.561 35.0742 21.7432 35.1536 21.8885L36.4485 24.256C36.528 24.4013 36.7102 24.4546 36.8554 24.3752C37.0007 24.2957 37.0541 24.1135 36.9746 23.9682L35.8236 21.8638L37.9281 20.7128C38.0734 20.6333 38.1267 20.4511 38.0473 20.3058C37.9678 20.1605 37.7856 20.1072 37.6403 20.1866L35.2728 21.4815ZM38.2073 28.7172C38.2816 28.8652 38.4618 28.9249 38.6097 28.8506L41.0215 27.64C41.1695 27.5657 41.2292 27.3855 41.1549 27.2375C41.0806 27.0895 40.9004 27.0298 40.7524 27.1041L38.6087 28.1802L37.5326 26.0364C37.4583 25.8884 37.2781 25.8287 37.1301 25.903C36.9821 25.9773 36.9224 26.1575 36.9967 26.3055L38.2073 28.7172ZM35.3324 22.0323C37.2765 22.6017 38.2583 23.2523 38.6471 24.1709C39.0445 25.1098 38.8725 26.432 38.1906 28.4883L38.7598 28.677C39.439 26.6287 39.6935 25.1047 39.1993 23.9371C38.6965 22.7493 37.4685 22.0331 35.501 21.4568L35.3324 22.0323Z" fill="white"/>
</svg>
